<svg id="Layer_1" data-name="Layer 1" xmlns="http://www.w3.org/2000/svg" viewBox="0 0 136 36"><defs><style>.cls-1{fill:#414042;}.cls-2{fill:#fbb017;}</style></defs><title>logo_rokk_color</title><path class="cls-1" d="M64.22,28.4v1.2H60.59V28.55a6.52,6.52,0,0,1-4.13,1.39,6.41,6.41,0,0,1-3.18-.79A5.75,5.75,0,0,1,51,26.91a6.76,6.76,0,0,1-.83-3.37,6.87,6.87,0,0,1,.8-3.38,5.67,5.67,0,0,1,2.2-2.2,6.45,6.45,0,0,1,3.13-.77,7.47,7.47,0,0,1,2.29.37,6.63,6.63,0,0,1,2,1.05V13.16h-2.1V12h3.76V28.4ZM53.28,27.32a4.76,4.76,0,0,0,3.49,1.36,6.14,6.14,0,0,0,3.82-1.36V19.87a6.47,6.47,0,0,0-4-1.41,4.38,4.38,0,0,0-3.39,1.41,5.47,5.47,0,0,0-1.29,3.82A4.84,4.84,0,0,0,53.28,27.32Z"/><path class="cls-1" d="M78.69,23.9H68.19a5.13,5.13,0,0,0,1.5,3.47,4.62,4.62,0,0,0,3.37,1.31,6.34,6.34,0,0,0,2.64-.59,6.59,6.59,0,0,0,2.16-1.51l.58,1.08a7.32,7.32,0,0,1-2.38,1.69,7.33,7.33,0,0,1-6.28-.18,6.17,6.17,0,0,1-2.42-2.25,6.28,6.28,0,0,1-.89-3.35,6.48,6.48,0,0,1,.86-3.42,5.88,5.88,0,0,1,2.29-2.22,6.62,6.62,0,0,1,3.16-.77,5.71,5.71,0,0,1,4.28,1.68,6.39,6.39,0,0,1,1.63,4.66Zm-1.63-1a4.34,4.34,0,0,0-1.23-3.3,4.26,4.26,0,0,0-3-1.17,4.45,4.45,0,0,0-3.14,1.2,4.75,4.75,0,0,0-1.45,3.27Z"/><path class="cls-1" d="M91.87,24.1a2.92,2.92,0,0,1,.95,2.42,2.84,2.84,0,0,1-1.32,2.53,5.8,5.8,0,0,1-3.21.86,7.57,7.57,0,0,1-2.44-.4,4.43,4.43,0,0,1-1.77-1.05V29.6H82.72V25.66H84l.13,1.48a4.19,4.19,0,0,0,1.71,1.18,6.22,6.22,0,0,0,2.32.42,4.13,4.13,0,0,0,2.25-.57,1.75,1.75,0,0,0,.89-1.53,1.78,1.78,0,0,0-.68-1.57,7.71,7.71,0,0,0-2.49-.83l-1.85-.4a6,6,0,0,1-2.62-1.14,2.76,2.76,0,0,1-.86-2.21A2.81,2.81,0,0,1,84,18.07a5.46,5.46,0,0,1,3.21-.88,6.66,6.66,0,0,1,2,.34,4.42,4.42,0,0,1,1.68,1v-1h1.36v4.06H91l-.18-1.75a3.79,3.79,0,0,0-1.49-1,5.23,5.23,0,0,0-2-.39,3.9,3.9,0,0,0-2.12.54,1.67,1.67,0,0,0-.86,1.5A1.47,1.47,0,0,0,85,21.72a5.88,5.88,0,0,0,2,.74l1.76.37A8.49,8.49,0,0,1,91.87,24.1Z"/><path class="cls-1" d="M95.62,29.6V28.4h2.49V18.7H95.65V17.5h4.1V28.4h2.4v1.2Zm2.12-15.32a1.23,1.23,0,0,1,0-1.74,1.36,1.36,0,0,1,.93-.33,1.31,1.31,0,0,1,.92.33,1.21,1.21,0,0,1,0,1.74,1.25,1.25,0,0,1-.92.36A1.29,1.29,0,0,1,97.74,14.28Z"/><path class="cls-1" d="M118.83,17.5v1.2h-2.06V29.88a5.07,5.07,0,0,1-1.6,4.11,6.63,6.63,0,0,1-4.37,1.34,16.84,16.84,0,0,1-4.44-.71l.31-1.33a14.4,14.4,0,0,0,4.1.71A4.67,4.67,0,0,0,114,33a3.82,3.82,0,0,0,1.11-3V28.18a6.28,6.28,0,0,1-2,1.11,6.78,6.78,0,0,1-2.26.4,6.57,6.57,0,0,1-3.19-.77,5.71,5.71,0,0,1-2.26-2.18,6.47,6.47,0,0,1-.83-3.3,6.72,6.72,0,0,1,.78-3.31A5.47,5.47,0,0,1,107.5,18a6.51,6.51,0,0,1,3.14-.76,7.11,7.11,0,0,1,2.37.44,6.79,6.79,0,0,1,2.1,1.13V17.5Zm-11.2,9.62a4.74,4.74,0,0,0,3.48,1.34,5.87,5.87,0,0,0,2.06-.4A7.33,7.33,0,0,0,115.11,27V19.9a8.32,8.32,0,0,0-2.1-1.07,6.49,6.49,0,0,0-2.18-.41,4.23,4.23,0,0,0-3.3,1.41,5.37,5.37,0,0,0-1.26,3.74A4.75,4.75,0,0,0,107.63,27.12Z"/><path class="cls-1" d="M135.52,28.4v1.2H129.3V28.4h2.28V21.23a2.76,2.76,0,0,0-.7-2,2.49,2.49,0,0,0-1.89-.72A9.12,9.12,0,0,0,124.68,20V28.4h2.37v1.2h-6.49V28.4h2.49V18.7h-2.46V17.5h4.09v1.29a9.61,9.61,0,0,1,4.71-1.6,3.66,3.66,0,0,1,3.85,3.91v7.3Z"/><path class="cls-1" d="M14.22,18.73a6.56,6.56,0,0,1,1.55,4.59A7.42,7.42,0,0,1,15,26.81a5.56,5.56,0,0,1-2.12,2.3,5.91,5.91,0,0,1-3.05.8A6,6,0,0,1,6,28.68l0,.92H.66V27.29H2.47V14H.69V11.68H6.23v6.74a6.34,6.34,0,0,1,1.8-1A5.88,5.88,0,0,1,10.11,17,5.32,5.32,0,0,1,14.22,18.73ZM11,26.17a3.74,3.74,0,0,0,.91-2.67A3.82,3.82,0,0,0,11,20.83a3,3,0,0,0-2.33-1,3.78,3.78,0,0,0-2.46.89v5.58a4,4,0,0,0,2.4.8A3.09,3.09,0,0,0,11,26.17Z"/><path class="cls-1" d="M33.23,27.29V29.6H26.12V27.29h1.57V21.87a2.44,2.44,0,0,0-.5-1.63,1.71,1.71,0,0,0-1.38-.58,5.42,5.42,0,0,0-2.74.89v6.74h1.54V29.6H17.5V27.29h1.81V14H17.53V11.68h5.54v6.78A7.71,7.71,0,0,1,27.29,17a4,4,0,0,1,3,1.15,4.2,4.2,0,0,1,1.12,3.07v6Z"/><rect class="cls-2" x="0.48" y="0.67" width="15.33" height="2.15"/></svg>