<svg id="Layer_1" data-name="Layer 1" xmlns="http://www.w3.org/2000/svg" viewBox="0 0 45 40.53"><defs><style>.cls-1{fill:#fff;}</style></defs><title>logo_white</title><path class="cls-1" d="M17.14,24.91a8.37,8.37,0,0,1,3.26,3.31,10.15,10.15,0,0,1,1.21,5,10.22,10.22,0,0,1-1.21,5,8.55,8.55,0,0,1-3.26,3.35,9.06,9.06,0,0,1-4.57,1.17,6.72,6.72,0,0,1-5.43-2.14v1.83H1V17.27H7.45v8.38a6.87,6.87,0,0,1,5.12-1.9A9.16,9.16,0,0,1,17.14,24.91ZM14,36.47a4.55,4.55,0,0,0,1.09-3.24A4.47,4.47,0,0,0,14,30a3.64,3.64,0,0,0-2.78-1.15A3.66,3.66,0,0,0,8.43,30a4.51,4.51,0,0,0-1.08,3.2,4.6,4.6,0,0,0,1.08,3.24,3.64,3.64,0,0,0,2.79,1.17A3.62,3.62,0,0,0,14,36.47Z" transform="translate(0 -2.23)"/><path class="cls-1" d="M42.91,25.79q2.09,2,2.09,6.15V42.46H38.55V33q0-3.77-3-3.77a3.45,3.45,0,0,0-2.67,1.09,4.64,4.64,0,0,0-1,3.26v8.89H25.41V17.27h6.45v8.49a7,7,0,0,1,2.48-1.5,9,9,0,0,1,3-.51A7.55,7.55,0,0,1,42.91,25.79Z" transform="translate(0 -2.23)"/><rect class="cls-1" width="21.33" height="3.7"/></svg>